# xmcd
# 
# Track frame offsets:
#     150
#     16576
#     30489
#     43203
#     58710
# 
# Disc length: 974
# 
# Revision: 1
# Processed by: cddbd v1.5.2PL0 Copyright (c) Steve Scherf et al.
# Submitted via: fre:ac v1.0.17
# 
DISCID=3403cc05
DTITLE=The Inevitable Teaspoons - Rearranging Deckchairs
DYEAR=2015
DGENRE=Blues
TTITLE0=Jam On The Rhodes
TTITLE1=The Court Of Public Opinion
TTITLE2=Mr Hubble
TTITLE3=Spartan Tartan
TTITLE4=Vicious Spiral
EXTD=
EXTT0=
EXTT1=
EXTT2=
EXTT3=
EXTT4=
PLAYORDER=
